<?xml version="1.0" encoding="utf-8"?>
<!-- Generator: Adobe Illustrator 17.0.0, SVG Export Plug-In . SVG Version: 6.00 Build 0)  -->
<!DOCTYPE svg PUBLIC "-//W3C//DTD SVG 1.1//EN" "http://www.w3.org/Graphics/SVG/1.1/DTD/svg11.dtd">
<svg version="1.1" id="Layer_1" xmlns="http://www.w3.org/2000/svg" xmlns:xlink="http://www.w3.org/1999/xlink" x="0px" y="0px"
	 width="140px" height="120px" viewBox="0 0 140 120" enable-background="new 0 0 140 120" xml:space="preserve">
<g>
	<g>
		<g>
			<circle fill="#00BD51" cx="25.295" cy="58.521" r="1.849"/>
			<circle fill="#00BD51" cx="3.11" cy="58.521" r="1.849"/>
			<circle fill="#00BD51" cx="25.295" cy="40.034" r="1.849"/>
			<circle fill="#00BD51" cx="3.11" cy="40.034" r="1.849"/>
			<circle fill="#00BD51" cx="25.295" cy="21.546" r="1.849"/>
			<circle fill="#00BD51" cx="3.11" cy="21.546" r="1.849"/>
			<circle fill="#00BD51" cx="25.295" cy="3.059" r="1.849"/>
			<circle fill="#00BD51" cx="47.479" cy="40.034" r="1.849"/>
			<circle fill="#00BD51" cx="47.479" cy="21.546" r="1.849"/>
			<circle fill="#00BD51" cx="47.479" cy="3.059" r="1.849"/>
			<circle fill="#00BD51" cx="69.87" cy="40.034" r="1.849"/>
			<circle fill="#00BD51" cx="69.87" cy="21.546" r="1.849"/>
			<circle fill="#00BD51" cx="69.87" cy="3.059" r="1.849"/>
			<circle fill="#00BD51" cx="3.11" cy="3.059" r="1.849"/>
			<circle fill="#00BD51" cx="25.295" cy="77.008" r="1.849"/>
			<circle fill="#00BD51" cx="47.479" cy="58.521" r="1.849"/>
			<circle fill="#00BD51" cx="47.479" cy="77.008" r="1.849"/>
			<circle fill="#00BD51" cx="69.87" cy="58.521" r="1.849"/>
			<circle fill="#00BD51" cx="69.87" cy="77.008" r="1.849"/>
			<circle fill="#00BD51" cx="3.11" cy="77.008" r="1.849"/>
			<circle fill="#00BD51" cx="25.295" cy="95.496" r="1.849"/>
			<circle fill="#00BD51" cx="3.11" cy="95.496" r="1.849"/>
			<circle fill="#00BD51" cx="25.295" cy="116.941" r="1.849"/>
			<circle fill="#00BD51" cx="47.479" cy="95.496" r="1.849"/>
			<circle fill="#00BD51" cx="47.479" cy="116.941" r="1.849"/>
			<circle fill="#00BD51" cx="69.87" cy="95.496" r="1.849"/>
			<circle fill="#00BD51" cx="69.87" cy="116.941" r="1.849"/>
			<circle fill="#00BD51" cx="92.259" cy="40.034" r="1.849"/>
			<circle fill="#00BD51" cx="92.259" cy="21.546" r="1.849"/>
			<circle fill="#00BD51" cx="92.259" cy="3.059" r="1.849"/>
			<circle fill="#00BD51" cx="92.259" cy="58.521" r="1.849"/>
			<circle fill="#00BD51" cx="92.259" cy="77.008" r="1.849"/>
			<circle fill="#00BD51" cx="92.259" cy="95.496" r="1.849"/>
			<circle fill="#00BD51" cx="92.259" cy="116.941" r="1.849"/>
			<circle fill="#00BD51" cx="114.649" cy="40.034" r="1.849"/>
			<circle fill="#00BD51" cx="114.649" cy="21.546" r="1.849"/>
			<circle fill="#00BD51" cx="114.649" cy="3.059" r="1.849"/>
			<circle fill="#00BD51" cx="114.649" cy="58.521" r="1.849"/>
			<circle fill="#00BD51" cx="114.649" cy="77.008" r="1.849"/>
			<circle fill="#00BD51" cx="114.649" cy="95.496" r="1.849"/>
			<circle fill="#00BD51" cx="114.649" cy="116.941" r="1.849"/>
			<circle fill="#00BD51" cx="136.89" cy="40.034" r="1.849"/>
			<circle fill="#00BD51" cx="136.89" cy="21.546" r="1.849"/>
			<circle fill="#00BD51" cx="136.89" cy="3.059" r="1.849"/>
			<circle fill="#00BD51" cx="136.89" cy="58.521" r="1.849"/>
			<circle fill="#00BD51" cx="136.89" cy="77.008" r="1.849"/>
			<circle fill="#00BD51" cx="136.89" cy="95.496" r="1.849"/>
			<circle fill="#00BD51" cx="136.89" cy="116.941" r="1.849"/>
			<circle fill="#00BD51" cx="3.11" cy="116.941" r="1.849"/>
		</g>
	</g>
</g>
</svg>
